<svg xmlns="http://www.w3.org/2000/svg" width="512" height="512" viewBox="0 0 512 512" role="img" aria-label="OSBE Markdown Clipper icon">
  <rect x="20" y="20" width="472" height="472" rx="96" fill="#e0f2fe"/>
  <rect x="20" y="20" width="472" height="472" rx="96" fill="none" stroke="#bfdbfe" stroke-width="18"/>
  <path d="M112 352V168l92 112 92-112v184" fill="none" stroke="#0f172a" stroke-width="34" stroke-linecap="round" stroke-linejoin="round"/>
  <path d="M364 168v172M314 294l50 50 50-50" fill="none" stroke="#0f172a" stroke-width="34" stroke-linecap="round" stroke-linejoin="round"/>
  <path d="m21.44 11.05-9.19 9.19a6 6 0 0 1-8.49-8.49l9.19-9.19a4 4 0 0 1 5.66 5.66l-9.2 9.19a2 2 0 0 1-2.83-2.83l8.49-8.48" fill="none" stroke="#ff4d3d" stroke-width="3.2" stroke-linecap="round" stroke-linejoin="round" transform="translate(285 246) scale(7.5)"/>
</svg>
